<svg width="21" height="20" viewBox="0 0 21 20" fill="none" xmlns="http://www.w3.org/2000/svg">
<path d="M8.37787 12.4286L14.9139 5.8925C15.0682 5.73825 15.2481 5.66113 15.4538 5.66113C15.6594 5.66113 15.8394 5.73825 15.9936 5.8925C16.1479 6.04674 16.225 6.23003 16.225 6.44238C16.225 6.65472 16.1479 6.83775 15.9936 6.99148L8.91772 14.0867C8.76348 14.2409 8.58353 14.318 8.37787 14.318C8.17221 14.318 7.99226 14.2409 7.83802 14.0867L4.52178 10.7704C4.36754 10.6162 4.2935 10.4332 4.29967 10.2213C4.30584 10.0095 4.38631 9.82622 4.54106 9.67146C4.69582 9.51671 4.87911 9.43958 5.09094 9.4401C5.30277 9.44061 5.4858 9.51773 5.64005 9.67146L8.37787 12.4286Z" fill="#00A13B"/>
</svg>
