<svg width="33" height="32" viewBox="0 0 33 32" fill="none" xmlns="http://www.w3.org/2000/svg">
<path d="M17.2065 5.11224C17.0137 4.9016 16.778 4.73469 16.5153 4.62274C16.2526 4.51079 15.969 4.4564 15.6835 4.46322C15.398 4.47004 15.1173 4.53792 14.8602 4.66228C14.6032 4.78665 14.3757 4.96463 14.1932 5.18424L6.77051 14.1069V26.0002C6.77051 26.5307 6.98122 27.0394 7.35629 27.4144C7.73137 27.7895 8.24007 28.0002 8.77051 28.0002H11.1572C11.6876 28.0002 12.1963 27.7895 12.5714 27.4144C12.9465 27.0394 13.1572 26.5307 13.1572 26.0002V21.9856C13.1572 21.4551 13.3679 20.9464 13.743 20.5714C14.118 20.1963 14.6267 19.9856 15.1572 19.9856H17.0505C17.5809 19.9856 18.0896 20.1963 18.4647 20.5714C18.8398 20.9464 19.0505 21.4551 19.0505 21.9856V26.0002C19.0505 26.5307 19.2612 27.0394 19.6363 27.4144C20.0114 27.7895 20.5201 28.0002 21.0505 28.0002H23.4372C23.9676 28.0002 24.4763 27.7895 24.8514 27.4144C25.2265 27.0394 25.4372 26.5307 25.4372 26.0002V14.1069L17.2065 5.11224Z" fill="black"/>
</svg>
