<svg width="21" height="20" viewBox="0 0 21 20" fill="none" xmlns="http://www.w3.org/2000/svg">
<path fill-rule="evenodd" clip-rule="evenodd" d="M8.52443 3.6594C9.28943 2.2994 11.2464 2.2994 12.0104 3.6594L17.5904 13.5794C18.3404 14.9134 17.3774 16.5594 15.8484 16.5594H4.68743C3.15743 16.5594 2.19443 14.9134 2.94443 13.5794L8.52443 3.6594ZM11.2674 13.5604C11.2674 13.8256 11.1621 14.08 10.9745 14.2675C10.787 14.455 10.5326 14.5604 10.2674 14.5604C10.0022 14.5604 9.74786 14.455 9.56032 14.2675C9.37278 14.08 9.26743 13.8256 9.26743 13.5604C9.26743 13.2952 9.37278 13.0408 9.56032 12.8533C9.74786 12.6658 10.0022 12.5604 10.2674 12.5604C10.5326 12.5604 10.787 12.6658 10.9745 12.8533C11.1621 13.0408 11.2674 13.2952 11.2674 13.5604ZM10.2674 5.5604C10.0022 5.5604 9.74786 5.66576 9.56032 5.8533C9.37278 6.04083 9.26743 6.29519 9.26743 6.5604V9.5604C9.26743 9.82562 9.37278 10.08 9.56032 10.2675C9.74786 10.455 10.0022 10.5604 10.2674 10.5604C10.5326 10.5604 10.787 10.455 10.9745 10.2675C11.1621 10.08 11.2674 9.82562 11.2674 9.5604V6.5604C11.2674 6.29519 11.1621 6.04083 10.9745 5.8533C10.787 5.66576 10.5326 5.5604 10.2674 5.5604Z" fill="#F50000"/>
</svg>
