<svg width="21" height="21" viewBox="0 0 21 21" fill="none" xmlns="http://www.w3.org/2000/svg">
<path d="M19.9261 8.4722C16.7261 5.2722 12.2677 4.10553 8.13441 4.95553L10.2344 7.05553C13.1261 6.91387 16.0594 7.93053 18.2594 10.1389L19.9261 8.4722ZM16.5927 11.8055C15.5591 10.7722 14.2668 10.0354 12.8511 9.6722L15.7927 12.6139L16.5927 11.8055ZM2.43441 3.51387L4.99274 6.05553C3.76774 6.65553 2.61774 7.45553 1.60107 8.4722L3.25941 10.1389C4.29274 9.10553 5.48441 8.33887 6.75941 7.83053L8.62607 9.6972C7.2292 10.0574 5.95441 10.7854 4.93441 11.8055V11.8139L6.59274 13.4722C7.68145 12.3845 9.15385 11.768 10.6927 11.7555L16.5844 17.6389L17.6427 16.5889L3.50941 2.46387L2.43441 3.51387ZM8.26774 15.1389L10.7677 17.6389L13.2677 15.1389C12.9398 14.81 12.5501 14.5491 12.1211 14.3711C11.6921 14.193 11.2322 14.1014 10.7677 14.1014C10.3033 14.1014 9.84337 14.193 9.41438 14.3711C8.98538 14.5491 8.59573 14.81 8.26774 15.1389Z" fill="#FF8C05"/>
</svg>
